<svg width="1321" height="669" viewBox="0 0 1321 669" fill="none" xmlns="http://www.w3.org/2000/svg">
<rect width="1321" height="669" rx="20" fill="white"/>
<path d="M648.205 261.944H627.618V299.266H605.836V194.208H648.205C670.119 194.208 682.737 206.56 682.737 228.076C682.737 249.725 670.119 261.944 648.205 261.944ZM627.618 243.748H645.283C655.642 243.748 660.822 238.436 660.822 228.076C660.822 217.716 655.642 212.404 645.283 212.404H627.618V243.748ZM760.712 261.679C760.712 285.984 749.555 301.125 725.781 301.125C701.874 301.125 690.717 285.984 690.717 261.679C690.717 237.506 701.874 222.365 725.781 222.365C749.555 222.365 760.712 237.506 760.712 261.679ZM739.992 261.679C739.992 246.006 736.141 238.436 725.781 238.436C715.421 238.436 711.437 246.006 711.437 261.679C711.437 277.484 715.421 285.054 725.781 285.054C736.141 285.054 739.992 277.484 739.992 261.679ZM769.966 261.679C769.966 237.506 781.123 222.365 805.03 222.365C825.351 222.365 837.703 232.725 838.898 250.256H818.312C817.648 242.553 812.866 238.436 805.03 238.436C794.67 238.436 790.686 246.006 790.686 261.679C790.686 277.484 794.67 285.054 805.03 285.054C812.866 285.054 817.648 280.937 818.312 273.234H838.898C837.703 290.765 825.351 301.125 805.03 301.125C781.123 301.125 769.966 285.984 769.966 261.679ZM849.651 299.266V194.208H870.503V252.514H876.48L892.285 224.224H914.2L893.082 260.218L917.388 299.266H895.207L876.347 267.921H870.503V299.266H849.651ZM989.114 267.39H940.104C940.636 279.476 945.417 285.984 954.316 285.984C961.089 285.984 965.472 282.531 966.668 276.421H987.653C985.262 291.695 973.309 301.125 954.316 301.125C930.542 301.125 919.385 286.117 919.385 261.679C919.385 237.506 930.542 222.365 954.316 222.365C978.223 222.365 989.247 237.506 989.247 261.679C989.247 263.671 989.247 265.796 989.114 267.39ZM954.316 237.639C945.417 237.639 940.636 243.483 940.237 254.374H968.262C967.863 243.483 963.082 237.639 954.316 237.639ZM1026.96 240.295V273.765C1026.96 282.398 1029.61 284.39 1038.78 284.39H1046.48V299.93C1043.69 300.195 1037.58 300.328 1033.86 300.328C1013.94 300.328 1006.24 294.219 1006.24 276.952V240.295H995.345V224.224H1006.24V202.974H1026.96V224.224H1046.48V240.295H1026.96ZM648.205 420.944H627.618V458.266H605.836V353.208H648.205C670.119 353.208 682.737 365.56 682.737 387.076C682.737 408.725 670.119 420.944 648.205 420.944ZM627.618 402.748H645.283C655.642 402.748 660.822 397.436 660.822 387.076C660.822 376.716 655.642 371.404 645.283 371.404H627.618V402.748ZM732.555 398.498C720.601 398.498 713.562 406.202 713.562 420.811V458.266H692.71V383.224H713.562V397.17C715.82 386.677 721.929 381.365 733.086 381.365C735.344 381.365 737.469 381.63 738.93 382.029L738.664 398.764C737.469 398.631 735.078 398.498 732.555 398.498ZM814.02 420.679C814.02 444.984 802.863 460.125 779.089 460.125C755.182 460.125 744.026 444.984 744.026 420.679C744.026 396.506 755.182 381.365 779.089 381.365C802.863 381.365 814.02 396.506 814.02 420.679ZM793.301 420.679C793.301 405.006 789.449 397.436 779.089 397.436C768.729 397.436 764.745 405.006 764.745 420.679C764.745 436.484 768.729 444.054 779.089 444.054C789.449 444.054 793.301 436.484 793.301 420.679ZM915.316 458.266V410.319C915.316 401.819 911.73 397.568 904.957 397.568C896.324 397.568 890.878 404.209 890.878 416.03V458.266H870.292V410.319C870.292 401.819 866.706 397.568 859.932 397.568C851.432 397.568 845.986 404.209 845.986 416.03V458.266H825.267V383.224H845.986V395.842C848.643 387.076 855.682 381.365 866.44 381.365C877.198 381.365 885.167 386.545 888.62 395.975C893.003 386.146 900.972 381.365 911.465 381.365C927.004 381.365 935.903 391.725 935.903 410.85V458.266H915.316ZM969.724 420.679C969.724 436.484 973.575 444.054 983.935 444.054C994.427 444.054 998.279 436.484 998.279 420.679C998.279 405.139 994.427 397.568 983.935 397.568C973.575 397.568 969.724 405.139 969.724 420.679ZM969.724 446.711V490.939H949.004V383.224H969.724V394.779C972.38 386.677 979.818 381.365 990.177 381.365C1007.97 381.365 1018.87 393.982 1018.87 420.679C1018.87 447.507 1007.97 460.125 990.177 460.125C979.818 460.125 972.38 454.812 969.724 446.711ZM1056.66 399.295V432.765C1056.66 441.398 1059.31 443.39 1068.48 443.39H1076.18V458.93C1073.39 459.195 1067.28 459.328 1063.56 459.328C1043.64 459.328 1035.94 453.219 1035.94 435.952V399.295H1025.05V383.224H1035.94V361.974H1056.66V383.224H1076.18V399.295H1056.66ZM1111.72 436.617V458.266H1089.94V436.617H1111.72Z" fill="#7580EA"/>
<rect x="231.295" y="209.611" width="225.408" height="275.499" rx="20" fill="#7580EA"/>
<rect x="186.137" y="176.805" width="245.417" height="284.238" rx="24.3692" fill="#7580EA" stroke="white" stroke-width="8.73837"/>
<rect x="190.715" y="181.383" width="236.261" height="181.579" rx="19.7913" fill="#7580EA" stroke="#7580EA" stroke-width="0.417423"/>
<path d="M308.285 235.765C309.904 281.037 346.099 317.362 391.21 318.987C346.099 320.612 309.904 356.937 308.285 402.21C306.666 356.937 270.47 320.612 225.359 318.987C270.47 317.362 306.666 281.037 308.285 235.765Z" fill="white"/>
<path d="M494.572 181.669C514.217 203.714 515.504 240.354 498.83 283.575C482.28 326.477 448.559 374.172 401.393 416.204C354.228 458.237 302.979 486.264 258.462 497.783C213.613 509.389 177.363 503.907 157.717 481.862C138.071 459.817 136.785 423.178 153.458 379.956C170.009 337.054 203.73 289.36 250.896 247.327C298.061 205.295 349.31 177.267 393.827 165.748C438.675 154.143 474.926 159.624 494.572 181.669Z" stroke="#7580EA" stroke-width="11.6584"/>
<path fill-rule="evenodd" clip-rule="evenodd" d="M506.302 175.858C509.603 172.556 514.859 172.264 518.506 175.18L552.013 201.976C557.023 205.983 559.528 207.986 561.229 210.499C562.735 212.724 563.777 215.229 564.294 217.865C564.877 220.844 564.532 224.033 563.842 230.41L533.866 507.462C532.926 516.15 532.456 520.494 530.563 523.97C528.892 527.039 526.447 529.616 523.47 531.446C520.097 533.518 515.784 534.216 507.157 535.61L260.018 575.551C254.041 576.517 251.053 577 248.194 576.638C245.663 576.318 243.216 575.516 240.986 574.276C238.468 572.876 236.345 570.718 232.099 566.401L176.986 510.369C175.559 508.919 175.569 506.59 177.007 505.152V505.152C178.032 504.127 179.547 503.797 180.92 504.263C234.761 522.542 325.167 490.394 403.789 420.329C492.849 340.961 535.312 240.99 505.05 188.143C502.778 184.177 503.07 179.089 506.302 175.858V175.858Z" fill="white"/>
</svg>
